<?xml version="1.0" encoding="UTF-8"?>
<svg version="1.1" xmlns="http://www.w3.org/2000/svg" width="1024" height="1024">
<path d="M0 0 C337.92 0 675.84 0 1024 0 C1024 337.92 1024 675.84 1024 1024 C686.08 1024 348.16 1024 0 1024 C0 686.08 0 348.16 0 0 Z " fill="#FDFDFD" transform="translate(0,0)"/>
<path d="M0 0 C0.66 0 1.32 0 2 0 C2.09346646 27.48589671 2.16399064 54.97176958 2.20724869 82.45779324 C2.22786855 95.22020723 2.25597833 107.98252245 2.30175781 120.74487305 C2.34164298 131.86932172 2.367437 142.99369886 2.37635398 154.11821705 C2.38156582 160.00786608 2.39380395 165.89731045 2.42292023 171.78689384 C2.45011563 177.33298025 2.45843654 182.8787781 2.45243073 188.42492485 C2.4535291 190.45782032 2.46145822 192.49072567 2.4768219 194.52356339 C2.49681428 197.30584989 2.49190549 200.0870564 2.48101807 202.86936951 C2.49849512 204.06736771 2.49849512 204.06736771 2.51632524 205.28956789 C2.44198061 212.35044884 -0.07484479 217.74204504 -3.625 223.75 C-10.61716179 230.37415327 -18.28484584 231.73001497 -27.60009766 231.56762695 C-29.29688943 231.56853096 -29.29688943 231.56853096 -31.02795982 231.56945324 C-34.65717662 231.56574784 -38.28507814 231.52779724 -41.9140625 231.48828125 C-44.16755557 231.48092154 -46.4210572 231.47582576 -48.67456055 231.47302246 C-56.99150481 231.44690407 -65.30826559 231.37709755 -73.625 231.3125 C-92.22875 231.209375 -110.8325 231.10625 -130 231 C-130 171.6 -130 112.2 -130 51 C-122.41 50.01 -114.82 49.02 -107 48 C-69.32498666 42.27721316 -27.46615018 27.46615018 0 0 Z " fill="#6D8725" transform="translate(722,503)"/>
<path d="M0 0 C0.45187975 13.28700273 0.17623168 26.21022118 -1.8125 39.375 C-1.97782227 40.47175049 -2.14314453 41.56850098 -2.31347656 42.69848633 C-6.06340527 65.83893622 -14.30479046 89.25026733 -30 107 C-30.47695313 107.60714844 -30.95390625 108.21429688 -31.4453125 108.83984375 C-39.27907692 118.71038692 -50.29762159 125.60397234 -61 132 C-61.57169922 132.34417969 -62.14339844 132.68835938 -62.73242188 133.04296875 C-80.91518951 143.81641337 -101.7976468 149.97759935 -122.375 154.25 C-123.62434326 154.51345215 -123.62434326 154.51345215 -124.89892578 154.78222656 C-130.0315031 155.80030942 -134.76806301 156.16838418 -140 156 C-139.38947647 151.28894528 -137.40178678 147.44481924 -135.1875 143.3125 C-134.79296631 142.57354492 -134.39843262 141.83458984 -133.99194336 141.07324219 C-124.28627558 123.28357522 -111.92813444 107.33847052 -98.6640625 92.09375 C-96.36916899 89.4520437 -94.18432304 86.73395748 -92 84 C-89.5844822 81.46060949 -87.20100612 79.15688282 -84.4375 77 C-81.93875462 75.09998586 -81.93875462 75.09998586 -80.171875 72.6484375 C-77.91797648 69.89997851 -75.58554994 67.84183934 -72.8125 65.625 C-71.8534375 64.85542969 -70.894375 64.08585937 -69.90625 63.29296875 C-65.95348075 60.17431882 -61.99338598 57.06652602 -58 54 C-76.72207326 64.56949415 -95.08271367 76.30750013 -110.85546875 91.0078125 C-112.79217432 92.80693789 -114.78148736 94.49709196 -116.8125 96.1875 C-136.56456002 113.47055252 -152.23554511 136.30701723 -164.86328125 159.11328125 C-165.42595703 160.04720703 -165.42595703 160.04720703 -166 161 C-166.33 161 -166.66 161 -167 161 C-168.7745867 150.62857221 -169.44194183 140.56312238 -169.4375 130.0625 C-169.43823517 129.30053314 -169.43897034 128.53856628 -169.43972778 127.75350952 C-169.35765323 95.1911766 -158.81729009 69.85466404 -135.82421875 46.8203125 C-102.44040885 15.51120265 -44.83701624 -0.99637814 0 0 Z " fill="#6D8726" transform="translate(748,376)"/>
<path d="M0 0 C0.1403346 18.48934351 0.24605137 36.97857853 0.31087303 55.46834469 C0.34177466 64.05402904 0.38388398 72.63938194 0.45263672 81.22485352 C0.51255252 88.71040165 0.551176 96.19570968 0.56453097 103.68149096 C0.57233434 107.64310063 0.59059518 111.60402357 0.63438034 115.56541252 C0.67531503 119.29940382 0.68762778 123.03243007 0.67864609 126.76662445 C0.68106615 128.77962602 0.71324545 130.7925241 0.746521 132.80525208 C0.69249522 140.76762178 -0.48006923 146.0698036 -6 152 C-8.6328125 153.9375 -8.6328125 153.9375 -11.125 155 C-11.95257812 155.37125 -12.78015625 155.7425 -13.6328125 156.125 C-17.34226929 157.49615234 -20.54559998 158.12494597 -24.50518799 158.12025452 C-25.40073017 158.12163201 -26.29627235 158.12300951 -27.21895218 158.12442875 C-28.19760616 158.12083064 -29.17626015 158.11723253 -30.18457031 158.11352539 C-31.76133104 158.11370619 -31.76133104 158.11370619 -33.36994553 158.11389065 C-36.77269354 158.11314424 -40.17538678 158.10552832 -43.578125 158.09765625 C-45.67887343 158.09618599 -47.77962222 158.0951658 -49.88037109 158.09460449 C-57.67025298 158.08936136 -65.46012703 158.07540016 -73.25 158.0625 C-90.6575 158.041875 -108.065 158.02125 -126 158 C-126 122.03 -126 86.06 -126 49 C-118.08 48.01 -110.16 47.02 -102 46 C-97.82761313 45.29523656 -93.7464637 44.58555325 -89.625 43.6875 C-88.64080078 43.47657715 -87.65660156 43.2656543 -86.64257812 43.04833984 C-71.7834578 39.74336678 -57.71199984 34.56995287 -44 28 C-43.1862793 27.61215332 -42.37255859 27.22430664 -41.53417969 26.82470703 C-28.51214059 20.53340693 -17.15050093 13.19065643 -6 4 C-1.11330049 0 -1.11330049 0 0 0 Z " fill="#9AB634" transform="translate(549,577)"/>
<path d="M0 0 C1.30079068 35.46155523 -5.76869467 68.88084843 -30.47265625 95.52734375 C-51.71481271 116.30985541 -85.87786791 129.91163194 -115.43359375 131.09765625 C-117.2890625 131.06510417 -119.14453125 131.03255208 -121 131 C-119.5501913 126.10689563 -117.50437499 121.91018276 -115 117.5 C-114.60554688 116.80366455 -114.21109375 116.1073291 -113.8046875 115.38989258 C-105.60089845 101.17998832 -95.22688031 88.50364406 -84.1875 76.41015625 C-82.06733383 74.07418746 -80.0030269 71.69673125 -77.9375 69.3125 C-74.23876964 65.15597001 -70.27660338 61.54928988 -66 58 C-64.94246478 57.11487425 -63.88519217 56.22943468 -62.828125 55.34375 C-59.89209124 52.88772762 -56.94786044 50.44181107 -54 48 C-70.19790044 56.8541578 -85.13581691 66.801124 -99 79 C-100.25876953 79.99 -100.25876953 79.99 -101.54296875 81 C-116.73835824 93.3689021 -128.59042819 110.39506177 -138.43530273 127.14868164 C-138.86012939 127.86918701 -139.28495605 128.58969238 -139.72265625 129.33203125 C-140.09140869 129.96858643 -140.46016113 130.6051416 -140.84008789 131.26098633 C-142.05574458 133.0835758 -143.40388007 134.5060593 -145 136 C-149.6611913 108.82359 -149.05168594 80.47229714 -133.86328125 56.6484375 C-122.25165301 40.63938635 -107.2971661 30.04616529 -90 21 C-89.10023438 20.52820313 -88.20046875 20.05640625 -87.2734375 19.5703125 C-61.27363694 6.94183794 -28.87484523 -0.61801096 0 0 Z " fill="#98B534" transform="translate(558,476)"/>
<path d="M0 0 C0.14885269 6.50712683 -0.42933929 12.77742637 -1.20703125 19.234375 C-1.39612312 20.84424286 -1.39612312 20.84424286 -1.58903503 22.4866333 C-1.8566851 24.75616442 -2.12661358 27.02542786 -2.39868164 29.29443359 C-2.80614437 32.69692771 -3.20543199 36.10030357 -3.60351562 39.50390625 C-5.16235414 52.7097997 -6.92935452 65.86454595 -9 79 C-12.45649485 76.74031419 -15.78807718 74.46332498 -18.9453125 71.80078125 C-19.62980469 71.23166016 -20.31429688 70.66253906 -21.01953125 70.07617188 C-22.43354004 68.89170997 -23.84496764 67.70416037 -25.25390625 66.51367188 C-25.93582031 65.94841797 -26.61773438 65.38316406 -27.3203125 64.80078125 C-27.93148926 64.28684814 -28.54266602 63.77291504 -29.17236328 63.2434082 C-31.17546907 61.88062196 -32.59545645 61.28010886 -35 61 C-37.2942149 62.23677353 -39.26862173 63.49199235 -41.375 65 C-42.01711426 65.44351807 -42.65922852 65.88703613 -43.32080078 66.34399414 C-44.75895584 67.33783976 -46.1934838 68.33694754 -47.625 69.34033203 C-52.01658594 72.40920551 -56.44864666 75.41909681 -60.875 78.4375 C-61.81883545 79.08243408 -62.7626709 79.72736816 -63.73510742 80.3918457 C-72.06606623 86.07357537 -80.49411229 91.58467599 -89 97 C-89.74282227 97.47501953 -90.48564453 97.95003906 -91.25097656 98.43945312 C-132.18614874 124.6034916 -174.80006348 148.82001902 -218.78320312 169.48730469 C-221.62455627 170.82344798 -224.46266413 172.16626004 -227.2999115 173.51109314 C-272.39764059 194.86833507 -319.12562683 214.80699029 -367 229.08203125 C-370.35916949 230.10990212 -373.6757283 231.23944598 -377 232.375 C-386.56930903 235.58783619 -396.2750913 238.30190689 -406 241 C-407.25296875 241.34933594 -408.5059375 241.69867188 -409.796875 242.05859375 C-413.52271201 243.07434796 -417.25681277 244.05072137 -421 245 C-421.99773437 245.25346191 -422.99546875 245.50692383 -424.0234375 245.76806641 C-427.42968391 246.62707173 -430.83923031 247.47164717 -434.25 248.3125 C-435.91337402 248.73112305 -435.91337402 248.73112305 -437.61035156 249.15820312 C-438.6515918 249.41150391 -439.69283203 249.66480469 -440.765625 249.92578125 C-441.70180664 250.15692627 -442.63798828 250.38807129 -443.60253906 250.6262207 C-446 251 -446 251 -449 250 C-447.79561279 249.61630249 -447.79561279 249.61630249 -446.56689453 249.22485352 C-419.41975989 240.56116182 -392.51138562 231.47924954 -366 221 C-365.11022461 220.6503418 -364.22044922 220.30068359 -363.30371094 219.94042969 C-328.24282978 206.10588451 -293.64213793 190.25120832 -260.47802734 172.33251953 C-257.66608594 170.82044306 -254.84308702 169.33011551 -252.01953125 167.83984375 C-237.01835715 159.88746895 -222.37362944 151.45375863 -207.83154297 142.70068359 C-205.50983443 141.30621716 -203.18256236 139.92296201 -200.84765625 138.55078125 C-192.87259501 133.85276897 -185.05735005 128.90798609 -177.25 123.9375 C-175.68644775 122.94556641 -175.68644775 122.94556641 -174.09130859 121.93359375 C-168.07915159 118.08520241 -162.24692214 114.06789513 -156.50097656 109.83276367 C-153.1383589 107.36857285 -149.7011643 105.02503417 -146.25 102.6875 C-129.16625563 91.01800735 -112.8288782 78.37907421 -96.73095703 65.39453125 C-95.16632081 64.13399498 -93.59709986 62.87915468 -92.02734375 61.625 C-86.07635669 56.82996006 -80.41622911 51.79161445 -74.81640625 46.59765625 C-71.27112315 43.32773494 -67.65329198 40.14827809 -64 37 C-68.67855947 32.00769098 -74.01863277 28.18328172 -79.55664062 24.19726562 C-80.25595703 23.68486328 -80.95527344 23.17246094 -81.67578125 22.64453125 C-82.31427002 22.18409424 -82.95275879 21.72365723 -83.6105957 21.24926758 C-84.06909912 20.83700928 -84.52760254 20.42475098 -85 20 C-85 19.34 -85 18.68 -85 18 C-84.46149414 17.89042969 -83.92298828 17.78085937 -83.36816406 17.66796875 C-69.88078018 14.91338474 -56.43342657 12.00458349 -43 9 C-32.28343135 6.60383588 -21.56382946 4.23627653 -10.8125 2 C-9.81541016 1.79246094 -8.81832031 1.58492188 -7.79101562 1.37109375 C-1.14169034 0 -1.14169034 0 0 0 Z " fill="#7A942B" transform="translate(767,266)"/>
<path d="M0 0 C1.28604204 27.97141433 -3.58376339 60.67308565 -22.61767578 82.38110352 C-32.92434411 93.64311673 -44.39580282 100.42977345 -58 107 C-59.00417969 107.50402344 -60.00835937 108.00804687 -61.04296875 108.52734375 C-67.78065137 111.64240233 -74.89484756 113.4138438 -82.0625 115.25 C-83.06821045 115.5087793 -84.0739209 115.76755859 -85.11010742 116.03417969 C-91.73008186 117.6549563 -98.19844411 118.58205998 -105 119 C-104.15317793 114.11116827 -102.38410417 110.40174119 -100.0625 106.0625 C-99.66426025 105.31540771 -99.26602051 104.56831543 -98.85571289 103.79858398 C-94.82255125 96.40667881 -90.10667056 89.68115789 -85 83 C-84.34386719 82.13117188 -83.68773437 81.26234375 -83.01171875 80.3671875 C-74.5574799 69.47994823 -64.80908621 59.65608486 -55 50 C-53.33216415 48.33450333 -51.66519759 46.66813445 -50 45 C-81.37758294 64.41487945 -106.17708591 88.42925206 -124 121 C-128.88296574 116.11703426 -128.25824502 108.05999377 -128.2734375 101.59179688 C-128.26570313 100.46837891 -128.25796875 99.34496094 -128.25 98.1875 C-128.25773437 97.07568359 -128.26546875 95.96386719 -128.2734375 94.81835938 C-128.22332759 73.40890203 -120.89590864 54.20222859 -105.87109375 38.8125 C-79.98751697 13.14628614 -36.21145923 -0.92849895 0 0 Z " fill="#BDD250" transform="translate(388,563)"/>
<path d="M0 0 C0.09285732 9.13628668 0.16384439 18.27240983 0.20724869 27.4090662 C0.2280852 31.65203128 0.25633016 35.89467247 0.30175781 40.13745117 C0.34535708 44.23531191 0.3691667 48.33286195 0.37950897 52.43093681 C0.3868752 53.99100062 0.4012598 55.55104826 0.42292023 57.11097908 C0.45214314 59.30360202 0.45594839 61.49495645 0.45410156 63.68774414 C0.46298401 64.93350723 0.47186646 66.17927032 0.48101807 67.46278381 C-0.28876709 73.12347874 -2.48058559 76.82167862 -7.0625 80.375 C-10.61742291 82.3415531 -13.19559548 83.12522286 -17.19511414 83.12025452 C-18.47604446 83.12231651 -18.47604446 83.12231651 -19.78285217 83.12442017 C-20.71649094 83.12082489 -21.6501297 83.11722961 -22.61206055 83.11352539 C-24.09038361 83.11374443 -24.09038361 83.11374443 -25.59857178 83.1139679 C-28.8613097 83.11327035 -32.12399078 83.10548527 -35.38671875 83.09765625 C-37.6468757 83.09579151 -39.90703305 83.09436787 -42.16719055 83.09336853 C-48.1200573 83.08954776 -54.07289971 83.07972119 -60.02575684 83.06866455 C-66.09854808 83.058441 -72.17134326 83.05386888 -78.24414062 83.04882812 C-90.16277112 83.03809856 -102.08138354 83.02102738 -114 83 C-114.06110105 79.9762522 -114.10554879 76.95375822 -114.140625 73.9296875 C-114.16890381 72.65677856 -114.16890381 72.65677856 -114.19775391 71.3581543 C-114.26171088 63.99244226 -112.87138802 58.37760237 -109 52 C-108.52820313 51.11183594 -108.05640625 50.22367188 -107.5703125 49.30859375 C-103.41084065 45.57265475 -98.53921126 45.5937441 -93.125 44.9375 C-90.83513194 44.61107062 -88.54604877 44.27908455 -86.2578125 43.94140625 C-85.1637207 43.78172363 -84.06962891 43.62204102 -82.94238281 43.45751953 C-53.33673947 38.85405325 -23.04514065 22.52235374 -2.28515625 1.2421875 C-1 0 -1 0 0 0 Z " fill="#C0D554" transform="translate(381,651)"/>
<path d="M0 0 C0.66 0.33 1.32 0.66 2 1 C0.68 1.99 -0.64 2.98 -2 4 C-0.68 4.66 0.64 5.32 2 6 C-23.01266228 13.21359253 -23.01266228 13.21359253 -34 16 C-34.99773437 16.25346191 -35.99546875 16.50692383 -37.0234375 16.76806641 C-40.42968391 17.62707173 -43.83923031 18.47164717 -47.25 19.3125 C-48.35891602 19.59158203 -49.46783203 19.87066406 -50.61035156 20.15820312 C-51.6515918 20.41150391 -52.69283203 20.66480469 -53.765625 20.92578125 C-54.70180664 21.15692627 -55.63798828 21.38807129 -56.60253906 21.6262207 C-59 22 -59 22 -62 21 C-60.79561279 20.61630249 -60.79561279 20.61630249 -59.56689453 20.22485352 C-45.12369715 15.61547537 -30.69995675 10.96720919 -16.375 6 C-15.29879395 5.62689697 -14.22258789 5.25379395 -13.11376953 4.86938477 C-7.65764109 2.98326762 -7.65764109 2.98326762 -2.30712891 0.82421875 C-1.54577637 0.55222656 -0.78442383 0.28023438 0 0 Z " fill="#ADCA55" transform="translate(380,495)"/>
<path d="M0 0 C-1.32 0.99 -2.64 1.98 -4 3 C-2.68 3.66 -1.36 4.32 0 5 C-14.59681093 9.59225513 -14.59681093 9.59225513 -22 9 C-21 6 -21 6 -19.17407227 5.00097656 C-18.39604248 4.71706055 -17.6180127 4.43314453 -16.81640625 4.140625 C-15.97142578 3.82996094 -15.12644531 3.51929688 -14.25585938 3.19921875 C-13.36705078 2.88597656 -12.47824219 2.57273437 -11.5625 2.25 C-10.67755859 1.92128906 -9.79261719 1.59257812 -8.88085938 1.25390625 C-2.26726974 -1.13363487 -2.26726974 -1.13363487 0 0 Z " fill="#A7C14C" transform="translate(382,496)"/>
<path d="M0 0 C0.66 0.33 1.32 0.66 2 1 C-11.27518773 7.92995118 -24.95773294 13.80587111 -39 19 C-40.0725 19.4125 -41.145 19.825 -42.25 20.25 C-45.13958063 21.03806745 -46.2221625 20.83097703 -49 20 C-48.15518066 19.67837891 -47.31036133 19.35675781 -46.43994141 19.02539062 C-42.49967048 17.52198613 -38.56166057 16.01282835 -34.625 14.5 C-33.5665538 14.09365829 -33.5665538 14.09365829 -32.48672485 13.67910767 C-23.19747017 10.10558299 -13.99693629 6.42849316 -5.00439453 2.1484375 C-3.36019499 1.37893411 -1.68297353 0.68053487 0 0 Z " fill="#A8C34F" transform="translate(437,472)"/>
<path d="M0 0 C0.33 0 0.66 0 1 0 C1.06058594 1.27875 1.12117188 2.5575 1.18359375 3.875 C1.26807216 5.5833411 1.35271641 7.29167401 1.4375 9 C1.47681641 9.83917969 1.51613281 10.67835938 1.55664062 11.54296875 C1.75452132 15.47013943 2.00821885 19.35163121 2.53125 23.25 C2.94454998 26.55639984 3.10407371 29.67410322 3.0625 33 C3.05347656 33.94875 3.04445313 34.8975 3.03515625 35.875 C3.02355469 36.57625 3.01195312 37.2775 3 38 C3.66 38 4.32 38 5 38 C4.01 40.475 4.01 40.475 3 43 C2.67 43 2.34 43 2 43 C-0.45265847 28.70012517 -0.20640314 14.4672726 0 0 Z " fill="#ABC455" transform="translate(411,569)"/>
<path d="M0 0 C0.99 0.33 1.98 0.66 3 1 C-2.61 6.61 -8.22 12.22 -14 18 C-14.66 17.67 -15.32 17.34 -16 17 C-11.78670611 12.20123599 -7.58155363 7.45065209 -3 3 C-2.401875 2.401875 -1.80375 1.80375 -1.1875 1.1875 C-0.795625 0.795625 -0.40375 0.40375 0 0 Z " fill="#7D923B" transform="translate(664,452)"/>
<path d="M0 0 C0.66 0 1.32 0 2 0 C2.05390357 2.93774463 2.0936255 5.87450232 2.125 8.8125 C2.15013672 10.06256836 2.15013672 10.06256836 2.17578125 11.33789062 C2.18222656 12.14033203 2.18867188 12.94277344 2.1953125 13.76953125 C2.20578613 14.50792236 2.21625977 15.24631348 2.22705078 16.00708008 C2 18 2 18 0 21 C-0.19592461 17.68794116 -0.38032746 14.37534146 -0.5625 11.0625 C-0.61857422 10.11697266 -0.67464844 9.17144531 -0.73242188 8.19726562 C-0.78076172 7.29814453 -0.82910156 6.39902344 -0.87890625 5.47265625 C-0.9260376 4.64000244 -0.97316895 3.80734863 -1.02172852 2.94946289 C-1 1 -1 1 0 0 Z " fill="#B2CC5A" transform="translate(386,563)"/>
<path d="M0 0 C0 0.33 0 0.66 0 1 C-3.60116256 1.86718598 -7.20630848 2.71649241 -10.8125 3.5625 C-11.83666016 3.80935547 -12.86082031 4.05621094 -13.91601562 4.31054688 C-14.89892578 4.53935547 -15.88183594 4.76816406 -16.89453125 5.00390625 C-18.25348511 5.32597046 -18.25348511 5.32597046 -19.63989258 5.65454102 C-22 6 -22 6 -25 5 C-21.96543228 3.95717624 -18.92152006 2.94481712 -15.875 1.9375 C-15.0190625 1.64294922 -14.163125 1.34839844 -13.28125 1.04492188 C-8.47281454 -0.52706664 -5.03108312 -1.44334352 0 0 Z " fill="#B4CD6E" transform="translate(343,511)"/>
<path d="M0 0 C-3.07692746 2.6815279 -5.19734663 3.42087807 -9.25 3.6875 C-10.14203125 3.75324219 -11.0340625 3.81898438 -11.953125 3.88671875 C-12.62859375 3.92410156 -13.3040625 3.96148437 -14 4 C-14 3.34 -14 2.68 -14 2 C-9.07262981 0.02905192 -5.21979128 -0.1799928 0 0 Z " fill="#A4C24E" transform="translate(354,507)"/>
<path d="M0 0 C0.66 0.33 1.32 0.66 2 1 C-1.72026686 4.23501466 -6.29146387 6.57417568 -11 8 C-13.28125 7.609375 -13.28125 7.609375 -15 7 C-12.54595776 5.80283341 -10.08748321 4.6170654 -7.625 3.4375 C-6.57699219 2.92413086 -6.57699219 2.92413086 -5.5078125 2.40039062 C-3.69947784 1.53969288 -1.85148044 0.76347564 0 0 Z " fill="#99B63D" transform="translate(461,461)"/>
<path d="M0 0 C0.66 0.33 1.32 0.66 2 1 C-1.3 3.97 -4.6 6.94 -8 10 C-8.66 9.34 -9.32 8.68 -10 8 C-6.91367389 4.7373124 -4.06516496 1.97764782 0 0 Z " fill="#ECF2D6" transform="translate(503,523)"/>
<path d="M0 0 C0.66 0.33 1.32 0.66 2 1 C0.37680325 2.31472947 -1.248615 3.62671662 -2.875 4.9375 C-3.77992188 5.66839844 -4.68484375 6.39929688 -5.6171875 7.15234375 C-8 9 -8 9 -10 10 C-10.66 9.34 -11.32 8.68 -12 8 C-8.04 5.36 -4.08 2.72 0 0 Z " fill="#D5DEBF" transform="translate(689,429)"/>
<path d="M0 0 C1.65 0 3.3 0 5 0 C3.515 3.465 3.515 3.465 2 7 C1.34 7 0.68 7 0 7 C0 4.69 0 2.38 0 0 Z " fill="#809838" transform="translate(592,554)"/>
<path d="M0 0 C2.31 0.33 4.62 0.66 7 1 C7 1.66 7 2.32 7 3 C4.36 3 1.72 3 -1 3 C-0.67 2.01 -0.34 1.02 0 0 Z " fill="#A4C441" transform="translate(361,502)"/>
<path d="M0 0 C0.66 0.33 1.32 0.66 2 1 C-0.97 3.475 -0.97 3.475 -4 6 C-4.66 5.34 -5.32 4.68 -6 4 C-4.02 2.68 -2.04 1.36 0 0 Z " fill="#F0F5D9" transform="translate(338,607)"/>
<path d="M0 0 C-0.99 0.33 -1.98 0.66 -3 1 C-3.33 1.99 -3.66 2.98 -4 4 C-4.99 3.34 -5.98 2.68 -7 2 C-7 1.34 -7 0.68 -7 0 C-3.86650268 -1.04449911 -3.01031744 -0.93423645 0 0 Z " fill="#839B42" transform="translate(689,284)"/>
</svg>
